<?xml version="1.0" encoding="utf-8"?>
<!-- Generator: Adobe Illustrator 26.2.1, SVG Export Plug-In . SVG Version: 6.00 Build 0)  -->
<svg version="1.1" id="Layer_1" xmlns="http://www.w3.org/2000/svg" xmlns:xlink="http://www.w3.org/1999/xlink" x="0px" y="0px"
	 viewBox="0 0 600 138.6" style="enable-background:new 0 0 600 138.6;" xml:space="preserve">
<style type="text/css">
	.st0{enable-background:new    ;}
	.st1{fill:#FFFFFF;}
</style>
<g class="st0">
	<path class="st1" d="M90.7,103.4c0,4.6-0.8,8.8-2.5,12.8c-1.7,4-4.1,7.4-7.2,10.3c-3.1,2.9-6.9,5.1-11.4,6.7
		c-4.5,1.6-9.3,2.4-14.5,2.4c-4.4,0-8.3-0.3-11.7-0.9c-3.4-0.6-6.6-1.7-9.5-3.2c-3-1.5-5.7-3.6-8.3-6.2l14.9-14.9
		c1.8,1.8,3.8,3,6,3.8c2.3,0.8,4.8,1.2,7.5,1.2c4.5,0,7.8-1.2,9.8-3.6c2-2.4,3-5.2,3-8.4v-5.7c-4.3,4.4-10,6.6-16.9,6.6
		c-7.7,0-13.9-2.3-18.5-7c-2.3-2.3-4-4.8-5-7.6c-1-2.8-1.7-5.8-1.9-9c-0.2-3.2-0.4-7.8-0.4-13.7c0-4.6,0.1-8.1,0.2-10.5
		c0.1-2.4,0.4-4.9,0.9-7.5c0.5-2.5,1.2-4.8,2.1-6.8c1-2,2.3-3.8,4.1-5.6c2.2-2.2,4.9-3.9,8.2-5.1c3.3-1.2,6.8-1.9,10.5-1.9
		c3.9,0,7.2,0.6,9.9,1.8c2.7,1.2,5.3,3,7.7,5.5v-6.4h23.3V103.4z M66.7,66.8c0-3.2-0.2-6-0.6-8.2c-0.4-2.2-1.3-4-2.6-5.4
		c-1.4-1.4-3.4-2.1-6.2-2.1c-2.7,0-4.8,0.7-6.2,2.1c-1.4,1.4-2.3,3.2-2.6,5.4c-0.4,2.2-0.6,4.9-0.6,8.2c0,3.2,0.2,6,0.6,8.2
		c0.4,2.2,1.3,4,2.6,5.4c1.4,1.4,3.4,2.1,6.2,2.1c2.7,0,4.8-0.7,6.2-2.1c1.4-1.4,2.3-3.2,2.6-5.4C66.5,72.8,66.7,70.1,66.7,66.8z"/>
	<path class="st1" d="M176.1,77.6H129c0,3.4,1.3,6.3,3.8,8.6c2.5,2.4,5.9,3.5,10.1,3.5c4,0,7.1-0.5,9.4-1.6c2.3-1,4.5-2.7,6.8-4.9
		l14.4,14.3c-4.3,4.4-8.7,7.5-13.2,9.5c-4.5,2-10.3,3-17.4,3c-25,0-37.5-13.4-37.5-40.3c0-12.6,3.3-22.5,9.8-29.6
		c6.5-7.1,15-10.7,25.5-10.7c7.4,0,13.8,1.6,19.1,4.9c5.4,3.3,9.4,7.8,12.2,13.4c2.8,5.6,4.1,12,4.1,19.1V77.6z M152.4,61.5
		c0-2.3-0.4-4.4-1.3-6.2c-0.8-1.8-2-3.2-3.8-4.4c-1.8-1.2-4-1.8-6.6-1.8c-2.6,0-4.8,0.6-6.6,1.8c-1.8,1.2-3,2.6-3.8,4.4
		c-0.9,1.8-1.3,3.8-1.3,6.2H152.4z"/>
	<path class="st1" d="M255.9,69.7c0,7.8-0.6,13.9-1.9,18.3c-1.2,4.4-3.5,8.4-6.7,11.9c-6.3,6.7-14.8,10.1-25.4,10.1
		c-10.6,0-19.1-3.4-25.3-10.1c-2.1-2.3-3.9-4.8-5.1-7.5c-1.3-2.7-2.2-5.8-2.7-9.3c-0.5-3.5-0.8-7.9-0.8-13.3c0-5.3,0.3-9.8,0.8-13.3
		c0.5-3.5,1.4-6.6,2.7-9.3c1.3-2.7,3-5.2,5.1-7.6c2.8-2.9,6.2-5.3,10.4-7.2c4.1-1.9,9.1-2.9,14.9-2.9c5.8,0,10.8,0.9,15,2.8
		c4.2,1.9,7.6,4.3,10.4,7.3c3.2,3.5,5.5,7.5,6.7,11.9C255.3,55.9,255.9,62,255.9,69.7z M231.9,69.7c0-4.6-0.2-8.1-0.7-10.6
		c-0.5-2.5-1.4-4.4-2.8-5.8c-1.4-1.5-3.6-2.2-6.4-2.2c-2.8,0-5,0.7-6.4,2.2c-1.4,1.4-2.4,3.5-2.8,6.1c-0.5,2.6-0.7,6.1-0.7,10.3
		c0,4.2,0.2,7.6,0.7,10.2c0.5,2.6,1.4,4.7,2.8,6.2c1.5,1.5,3.6,2.2,6.4,2.2c2.9,0,5-0.7,6.4-2.2c1.4-1.5,2.4-3.4,2.8-5.9
		C231.7,77.8,231.9,74.3,231.9,69.7z"/>
	<path class="st1" d="M311,51.8h-13.2v57.3h-24V51.8h-7.2V33.4h7.2v-6.9c0-3.8,0.9-7.5,2.6-11.1c1.7-3.6,4.4-6.5,8.1-8.8
		c3.7-2.3,8.2-3.4,13.7-3.4H311v20.2h-8.4c-3.2,0-4.8,1.6-4.8,4.9v5.1H311V51.8z"/>
	<path class="st1" d="M390.9,77.6h-47.1c0,3.4,1.3,6.3,3.8,8.6c2.5,2.4,5.9,3.5,10.1,3.5c4,0,7.1-0.5,9.4-1.6c2.3-1,4.5-2.7,6.8-4.9
		l14.4,14.3c-4.3,4.4-8.7,7.5-13.2,9.5c-4.5,2-10.3,3-17.4,3c-25,0-37.5-13.4-37.5-40.3c0-12.6,3.3-22.5,9.8-29.6
		c6.5-7.1,15-10.7,25.5-10.7c7.4,0,13.8,1.6,19.1,4.9c5.4,3.3,9.4,7.8,12.2,13.4c2.8,5.6,4.1,12,4.1,19.1V77.6z M367.2,61.5
		c0-2.3-0.4-4.4-1.3-6.2c-0.8-1.8-2-3.2-3.8-4.4c-1.8-1.2-4-1.8-6.6-1.8c-2.6,0-4.8,0.6-6.6,1.8c-1.8,1.2-3,2.6-3.8,4.4
		c-0.9,1.8-1.3,3.8-1.3,6.2H367.2z"/>
	<path class="st1" d="M466.1,36.8l-18.2,18.5c-1.3-1.3-2.6-2.3-3.9-3c-1.2-0.7-2.8-1-4.8-1c-2.2,0-4.4,0.8-6.5,2.5
		c-2.1,1.6-3.1,4.4-3.1,8.4v47.1h-24V30.3H429v6.4c2-2,4.6-3.7,7.9-5.1c3.3-1.4,6.8-2.1,10.7-2.1c3.9,0,7.3,0.5,10.2,1.6
		C460.7,32.2,463.4,34.1,466.1,36.8z"/>
	<path class="st1" d="M542.5,30.3l-32.7,88.2c-1.5,4.4-3.6,7.8-6.2,10.4c-4.1,4.4-10,6.7-17.7,6.7H477v-21.7h5.1
		c2.2,0,4-0.4,5.1-1.2c1.2-0.8,2.2-2.4,2.9-4.6l2.2-6.7l-26.2-71h25.2l13.4,40.9l12.7-40.9H542.5z"/>
	<path class="st1" d="M576.1,109.1h-26.4V82.7h26.4V109.1z"/>
</g>
</svg>
